<?xml version="1.0" encoding="UTF-8"?>
<svg version="1.1" xmlns="http://www.w3.org/2000/svg" width="1024" height="1024">
<path d="M0 0 C337.92 0 675.84 0 1024 0 C1024 337.92 1024 675.84 1024 1024 C686.08 1024 348.16 1024 0 1024 C0 686.08 0 348.16 0 0 Z " fill="#FDFEFE" transform="translate(0,0)"/>
<path d="M0 0 C1.0716383 -0.00694553 2.14327659 -0.01389106 3.24738878 -0.02104706 C6.83257322 -0.03932023 10.41709622 -0.0290514 14.00230408 -0.01878357 C16.57485448 -0.02584175 19.14740074 -0.03458633 21.71994019 -0.04489136 C27.97821653 -0.06650788 34.23631089 -0.06641078 40.49461228 -0.05826581 C45.58117781 -0.05196109 50.66769033 -0.05310715 55.75425529 -0.05953789 C56.47871917 -0.06043954 57.20318305 -0.0613412 57.94960038 -0.06227018 C59.42140927 -0.0641214 60.89321814 -0.06598396 62.365027 -0.06785773 C76.15892915 -0.08442747 89.95272895 -0.07572346 103.74662494 -0.05887216 C116.36487572 -0.04417007 128.98288849 -0.0588121 141.60110862 -0.08764232 C154.56262743 -0.11703612 167.52403638 -0.12800904 180.48558706 -0.11846012 C181.95161814 -0.11743758 183.41764923 -0.11644297 184.88368034 -0.11547661 C185.9656119 -0.11476202 185.9656119 -0.11476202 187.06940066 -0.114033 C192.14974437 -0.11186916 197.22998401 -0.1216711 202.31030464 -0.13624763 C209.14845596 -0.15559447 215.98615697 -0.14869154 222.82428932 -0.12404823 C225.33574958 -0.11902889 227.84724343 -0.12255898 230.35867691 -0.13519669 C233.78333282 -0.15106847 237.20651772 -0.13622965 240.63110352 -0.11352539 C241.62828008 -0.12536112 242.62545665 -0.13719685 243.65285069 -0.14939123 C248.08117231 -0.08961721 251.29144812 0.05125487 254.87680721 2.81564426 C257.25205994 5.5146637 257.25205994 5.5146637 257.87705994 9.3271637 C257.58536075 13.10599535 256.12300404 15.84119204 254.38679504 19.19172668 C252.25204375 23.56181514 250.63701444 28.13947596 248.94346619 32.6943512 C248.5405687 33.76695694 248.1376712 34.83956268 247.7225647 35.94467163 C246.86213956 38.23669295 246.00365628 40.52944402 245.1469574 42.82286072 C243.34527993 47.64591747 241.53420994 52.46542915 239.72364807 57.28515625 C238.81966091 59.69184513 237.91615579 62.09871512 237.01313782 64.50576782 C233.54386645 73.75122371 230.03940073 82.98256597 226.50205994 92.2021637 C225.48760167 94.84794515 224.47333519 97.4938001 223.45909119 100.1396637 C223.20631409 100.79888321 222.95353699 101.45810272 222.69309998 102.13729858 C220.21771032 108.59647622 217.75809306 115.06163129 215.29959106 121.5272522 C213.58443589 126.03764012 211.86770873 130.5474118 210.14634705 135.05543518 C209.81305893 135.92829666 209.47977081 136.80115814 209.13638306 137.70046997 C208.4711709 139.44254847 207.80589832 141.1846039 207.14056396 142.92663574 C205.27523779 147.81562987 203.42444337 152.70973474 201.58914185 157.6100769 C200.50696778 160.49483857 199.41576311 163.37612893 198.32264709 166.25675964 C197.82477591 167.57544385 197.33104794 168.89570124 196.84187317 170.21763611 C193.5593175 179.08290623 191.00992695 185.90010459 182.37618947 190.67466807 C178.22552923 192.31606347 173.94217442 192.06964365 169.53535461 192.03605652 C168.4670943 192.04370761 167.39883399 192.05135871 166.29820216 192.05924165 C162.72451479 192.07985263 159.15147303 192.07192721 155.57774353 192.0639801 C153.01342169 192.07267561 150.44910505 192.08304233 147.88479614 192.09495544 C141.64689383 192.11895874 135.40922894 192.12404078 129.17128943 192.11935492 C124.10187615 192.11578623 119.0325151 192.11929282 113.96310806 192.1278038 C113.24113082 192.12899418 112.51915358 192.13018456 111.77529825 192.13141101 C110.30856063 192.13383453 108.84182303 192.1362628 107.37508543 192.13869576 C93.62938505 192.1604342 79.88378287 192.15612684 66.13807698 192.14392607 C53.56114905 192.13358002 40.98453057 192.15612078 28.40766387 192.19412251 C15.49021702 192.23285404 2.57291668 192.24939636 -10.34458864 192.24187601 C-17.595533 192.23804915 -24.84621373 192.2430547 -32.09711075 192.27130508 C-38.91152981 192.29758683 -45.72522716 192.29264818 -52.53967857 192.26648331 C-55.04350046 192.26173627 -57.5473656 192.26727645 -60.05113792 192.28372955 C-63.46322224 192.30453896 -66.87319539 192.28857005 -70.28520203 192.2631073 C-71.28140049 192.27785587 -72.27759895 192.29260444 -73.30398524 192.30779994 C-79.80084571 192.20543949 -79.80084571 192.20543949 -82.48462653 190.24798846 C-84.83555634 187.58969926 -85.72937926 185.64546685 -86.22816467 182.13038635 C-85.68660474 178.05285576 -84.56211799 174.46552222 -83.06434631 170.6631012 C-82.63479393 169.53109535 -82.63479393 169.53109535 -82.19656372 168.3762207 C-81.24520419 165.87647363 -80.27776516 163.38327118 -79.31044006 160.8896637 C-78.62942106 159.10845321 -77.9495959 157.32678587 -77.27088928 155.54469299 C-75.83615757 151.78146124 -74.39550922 148.02057219 -72.95057678 144.26124573 C-70.8017987 138.66442565 -68.67872271 133.05815215 -66.56434631 127.44825745 C-66.04815987 126.07871414 -66.04815987 126.07871414 -65.52154541 124.6815033 C-64.82347735 122.82908025 -64.12547437 120.97663268 -63.42753601 119.12416077 C-61.64732928 114.40270035 -59.86143965 109.68339054 -58.07606506 104.96388245 C-55.18591974 97.32243144 -52.30086275 89.67908044 -49.41981506 82.03419495 C-46.24564534 73.61190906 -43.06433957 65.1923566 -39.87512207 56.77575684 C-38.11514822 52.13031745 -36.35879962 47.48356674 -34.60975647 42.83399963 C-32.88636748 38.25310936 -31.15413409 33.67565805 -29.41548157 29.10054016 C-28.76930699 27.39558416 -28.12628762 25.68942853 -27.48664856 23.98200989 C-26.60698486 21.63540252 -25.71600017 19.29340049 -24.82215881 16.9521637 C-24.44200371 15.92577286 -24.44200371 15.92577286 -24.0541687 14.87864685 C-21.6518695 8.65356192 -18.8013723 4.62452623 -12.88662922 1.35905468 C-8.71917963 -0.28632556 -4.423801 -0.0366407 0 0 Z " fill="#386570" transform="translate(448.74794006347656,407.48533630371094)"/>
<path d="M0 0 C1.41322289 -0.08226837 1.41322289 -0.08226837 2.85499573 -0.16619873 C4.41209763 -0.24799881 4.41209763 -0.24799881 6.00065613 -0.33145142 C7.09243668 -0.39103027 8.18421722 -0.45060913 9.30908203 -0.51199341 C19.51152939 -1.04175303 29.71931641 -1.37124229 39.93181324 -1.62994957 C46.77450293 -1.80774772 53.60004261 -2.05356331 60.43229675 -2.47695923 C89.13563476 -4.21337233 112.69542187 -4.18765758 135.85295105 14.39266968 C150.5287323 37.36923218 150.5287323 37.36923218 150.5287323 111.36923218 C97.3987323 111.36923218 44.2687323 111.36923218 -10.4712677 111.36923218 C-10.5537677 94.33298218 -10.6362677 77.29673218 -10.7212677 59.74423218 C-10.75768372 54.36932495 -10.79409973 48.99441772 -10.83161926 43.45663452 C-10.84968567 36.88217163 -10.84968567 36.88217163 -10.8530426 33.80224609 C-10.85917619 31.65580935 -10.87322652 29.50938621 -10.89356995 27.36303711 C-10.92287781 24.10753515 -10.92689086 20.85287377 -10.92536926 17.59725952 C-10.9397617 16.64453848 -10.95415413 15.69181744 -10.9689827 14.71022606 C-10.93306391 8.96383207 -10.27128858 5.76125363 -6.4712677 1.36923218 C-4.15199691 0.20959678 -2.58620787 0.14860863 0 0 Z " fill="#CECECE" transform="translate(482.4712677001953,285.6307678222656)"/>
<path d="M0 0 C0.87837524 -0.00671722 1.75675049 -0.01343445 2.66174316 -0.02035522 C5.57102081 -0.03938203 8.48006827 -0.04326198 11.3894043 -0.04541016 C13.41098628 -0.05183556 15.43256733 -0.05856373 17.45414734 -0.06558228 C21.69520218 -0.07756728 25.9361755 -0.08126191 30.17724609 -0.08007812 C35.60804382 -0.07987504 41.03831765 -0.10716147 46.46899128 -0.14162254 C50.64605604 -0.16387794 54.82299455 -0.16791606 59.00011253 -0.16685867 C61.0019632 -0.16921728 63.00381721 -0.17805542 65.00560951 -0.19352341 C67.80879816 -0.21315271 70.61085503 -0.20735701 73.4140625 -0.1953125 C74.23869492 -0.20655151 75.06332733 -0.21779053 75.91294861 -0.22937012 C81.20731796 -0.17165921 84.1839077 0.80856008 88.40112305 4.29052734 C90.15893555 6.43896484 90.15893555 6.43896484 91.52612305 8.66552734 C91.98245117 9.39513672 92.4387793 10.12474609 92.90893555 10.87646484 C93.40135742 11.67310547 93.8937793 12.46974609 94.40112305 13.29052734 C95.42955322 14.51376709 95.42955322 14.51376709 96.47875977 15.76171875 C99.43821889 20.18757121 98.83184331 25.03585214 98.65112305 30.16552734 C98.63307617 31.14005859 98.6150293 32.11458984 98.59643555 33.11865234 C98.54954039 35.51030542 98.48393211 37.89989331 98.40112305 40.29052734 C97.31197601 40.29417297 96.22282898 40.2978186 95.10067749 40.30157471 C84.83049923 40.33853508 74.56062053 40.39631929 64.29067039 40.47443008 C59.01090639 40.51391911 53.73130952 40.54610068 48.45141602 40.56152344 C43.35485703 40.5766805 38.25875751 40.61110948 33.16240311 40.65883636 C31.21922425 40.67365991 29.27597981 40.68156892 27.3327446 40.68241119 C24.60813307 40.68477966 21.88479253 40.71184934 19.16040039 40.74462891 C18.35910706 40.73959854 17.55781372 40.73456818 16.73223877 40.72938538 C11.52813386 40.82609214 8.47551006 41.77429683 4.40112305 45.29052734 C1.47157098 49.25711725 1.03346862 52.06840322 1.06295776 56.95637512 C1.06266103 57.61341625 1.06236429 58.27045739 1.06205857 58.94740885 C1.06447465 61.1425589 1.0881501 63.33696378 1.11157227 65.53198242 C1.11729271 67.10951801 1.12156376 68.68705942 1.12449646 70.26460266 C1.13310003 73.66240332 1.15035928 77.06001274 1.17382431 80.45774269 C1.20939586 85.85416341 1.21562761 91.25037267 1.21609497 96.64689636 C1.22104443 111.99355399 1.24953363 127.33988359 1.3425293 142.6862793 C1.39364602 151.16244233 1.41177812 159.63804341 1.39494145 168.1143505 C1.38749051 172.58802605 1.39617059 177.060269 1.4461937 181.53370094 C1.64706398 200.21720916 1.46803592 216.13554655 -6.66500854 233.40141296 C-9.56887384 239.81618259 -9.4012226 246.53173118 -7.59887695 253.29052734 C-11.87917482 251.76184954 -13.48565402 249.22278633 -15.59887695 245.29052734 C-16.1666994 242.05977595 -16.13924804 238.88574888 -16.10681152 235.61193848 C-16.11305149 234.64324341 -16.11929145 233.67454835 -16.1257205 232.67649889 C-16.1416631 229.43366113 -16.12904091 226.19157369 -16.11645508 222.94873047 C-16.12187561 220.62263043 -16.12899788 218.29653382 -16.13769531 215.97044373 C-16.15593956 209.65439636 -16.14885639 203.33861018 -16.13617897 197.02255821 C-16.12708297 191.08465569 -16.13402361 185.14678552 -16.13988775 179.20888215 C-16.15128948 166.73167654 -16.13818628 154.25458854 -16.11668628 141.77740222 C-16.09881563 131.0751754 -16.10191985 120.37312213 -16.12036133 109.67089844 C-16.14177528 97.23785212 -16.15019089 84.80490886 -16.13791227 72.37184668 C-16.13167376 65.792172 -16.13085169 59.21261684 -16.14405823 52.63294983 C-16.15560636 46.44736382 -16.14760946 40.2621058 -16.1244812 34.07655525 C-16.11918864 31.80537015 -16.12071718 29.53415748 -16.12953186 27.26298332 C-16.14044885 24.16465398 -16.12676934 21.06737826 -16.10681152 17.96911621 C-16.11573441 17.06853123 -16.1246573 16.16794625 -16.13385057 15.24007082 C-16.06554673 9.78013916 -15.28089575 6.59482724 -11.59887695 2.29052734 C-7.72409714 -0.2926592 -4.49469262 -0.0049041 0 0 Z " fill="#3C6570" transform="translate(362.598876953125,343.70947265625)"/>
<path d="M0 0 C0.93005859 0.61875 0.93005859 0.61875 1.87890625 1.25 C2.57113281 1.6625 3.26335937 2.075 3.9765625 2.5 C10.4408204 6.75311922 14.44622933 12.95196924 16.87890625 20.25 C17.67065653 31.80176643 17.13692469 40.22235707 9.62890625 49.5 C3.83175193 55.73163055 -3.03311761 59.75890466 -11.6015625 60.5859375 C-23.5332229 60.71166627 -32.38218864 58.96628895 -41.17578125 50.53515625 C-47.54451924 43.0538074 -49.5416331 34.77894637 -49.38671875 25.1484375 C-48.5086685 15.56735977 -43.21851858 8.45750004 -36.12109375 2.25 C-26.64877583 -4.6151164 -10.3620371 -5.84005222 0 0 Z " fill="#6D6C6C" transform="translate(428.12109375,681.75)"/>
<path d="M0 0 C5.56875 -0.0825 11.1375 -0.165 16.875 -0.25 C18.61120605 -0.28641602 20.34741211 -0.32283203 22.13623047 -0.36035156 C31.58295774 -0.47764751 39.88467652 -0.28297227 47.47265625 6.0703125 C47.99730469 6.74835937 48.52195312 7.42640625 49.0625 8.125 C49.88427734 9.14980469 49.88427734 9.14980469 50.72265625 10.1953125 C54.52993033 15.57439698 53.90509652 23.64050602 53 30 C51.15021656 34.74860513 48.99767848 38.09484698 44.29296875 40.2265625 C43.53628906 40.48179687 42.77960938 40.73703125 42 41 C44.67593231 46.78001379 47.83038684 51.76981071 51.609375 56.8984375 C53 59 53 59 53 61 C53.66 61 54.32 61 55 61 C55 61.66 55 62.32 55 63 C49.95725777 63.9799661 44.90549752 64.84346722 40 63 C35.17789896 58.85662349 31.61824036 52.75333677 29 47 C29 46.34 29 45.68 29 45 C24.05 45 19.1 45 14 45 C14 50.94 14 56.88 14 63 C9.38 63 4.76 63 0 63 C0 42.21 0 21.42 0 0 Z " fill="#3E6772" transform="translate(282,679)"/>
<path d="M0 0 C2.23860964 1.238575 3.66993191 2.29493191 5.5 4.125 C5.83 2.475 6.16 0.825 6.5 -0.875 C9.8 -0.875 13.1 -0.875 16.5 -0.875 C16.64916129 5.63531648 16.75760103 12.14462199 16.82958984 18.65625 C16.85962253 20.86768946 16.90046197 23.0790112 16.95263672 25.29003906 C17.02604819 28.48271845 17.05959247 31.67381331 17.0859375 34.8671875 C17.11690521 35.84364227 17.14787292 36.82009705 17.17977905 37.82614136 C17.18328875 45.10766173 15.27342628 50.53506767 10.5 56.125 C3.39494401 60.95533899 -4.08416059 62.02784867 -12.5 61.125 C-24.26121563 58.36378437 -24.26121563 58.36378437 -27.5 55.125 C-27.17582137 51.31590105 -26.64418558 49.34127837 -24.5 46.125 C-19.5 48.125 -19.5 48.125 -17.1640625 49.17578125 C-11.5310907 51.18283718 -5.52167889 50.83436101 0.0625 48.875 C2.65633573 47.01275896 3.63000029 46.16999899 4.5 43.125 C4.66724737 39.95804044 4.66724737 39.95804044 4.5 37.125 C3.448125 37.785 2.39625 38.445 1.3125 39.125 C-4.82842778 42.18453697 -12.16919742 42.48458176 -18.71484375 40.4296875 C-25.29264631 37.00404853 -29.28013589 31.01826223 -31.5 24.125 C-32.5599288 17.8819029 -31.19847384 12.94694184 -28.19921875 7.4296875 C-21.70400438 -1.37991361 -9.93422176 -4.88538511 0 0 Z " fill="#6C6C6B" transform="translate(518.5,696.875)"/>
<path d="M0 0 C4.26774877 2.75032699 6.07406488 5.32861186 8 10 C8.24678591 12.68863958 8.35296343 15.12781248 8.29296875 17.8046875 C8.28872391 18.5286673 8.28447906 19.25264709 8.28010559 19.99856567 C8.26342972 22.29110287 8.22580081 24.58273246 8.1875 26.875 C8.17243871 28.43748722 8.15875284 29.99998835 8.14648438 31.5625 C8.11356293 35.37534505 8.06186002 39.18751911 8 43 C4.37 43 0.74 43 -3 43 C-3 41.68 -3 40.36 -3 39 C-3.9075 39.639375 -4.815 40.27875 -5.75 40.9375 C-11.49355515 44.58244846 -17.3138846 44.67144865 -24 44 C-28.03614866 42.72734051 -30.47893228 40.73957999 -32.9375 37.25 C-34.5508062 32.31518104 -34.8177174 28.24872284 -33 23.25 C-29.68563852 19.52134334 -25.54126212 17.33550371 -20.56640625 16.67871094 C-18.03275106 16.60855122 -15.53243409 16.64885824 -13 16.75 C-12.12988281 16.76804687 -11.25976562 16.78609375 -10.36328125 16.8046875 C-8.24170093 16.85131564 -6.12069665 16.92303923 -4 17 C-4.86761149 12.18917704 -4.86761149 12.18917704 -7.83203125 8.58203125 C-15.22176862 6.59811978 -22.07020648 8.18790988 -29 11 C-30.30223045 8.3189373 -31.02543433 6.47089853 -30.86328125 3.46875 C-30 1 -30 1 -27.8828125 -0.36328125 C-18.33120513 -3.65087416 -9.21506818 -4.89091318 0 0 Z " fill="#6D6C6C" transform="translate(759,698)"/>
<path d="M0 0 C0.7719873 -0.00966797 1.54397461 -0.01933594 2.33935547 -0.02929688 C7.91503364 0.05239804 12.23386911 1.0303695 16.45703125 4.97265625 C20.3391824 10.04931544 20.9542957 12.79837606 20.91015625 19.0703125 C20.9087413 19.82214813 20.90732635 20.57398376 20.90586853 21.34860229 C20.90026465 23.7532751 20.88771157 26.15785527 20.875 28.5625 C20.8699855 30.19140491 20.8654225 31.82031127 20.86132812 33.44921875 C20.85029397 37.44534827 20.83302679 41.44140842 20.8125 45.4375 C17.1825 45.4375 13.5525 45.4375 9.8125 45.4375 C9.4825 44.4475 9.1525 43.4575 8.8125 42.4375 C7.719375 43.0975 6.62625 43.7575 5.5 44.4375 C0.31981805 47.02299046 -4.50331001 47.15128802 -10.1875 46.4375 C-14.94602474 44.793646 -17.38319483 42.59202617 -20.1875 38.4375 C-21.42284045 34.73147865 -21.64278745 32.33996386 -21.1875 28.4375 C-18.98117311 24.64322849 -16.60177649 22.08713001 -12.59375 20.24609375 C-8.11006354 19.1817324 -3.90063093 19.22267214 0.6875 19.3125 C1.56664062 19.32152344 2.44578125 19.33054687 3.3515625 19.33984375 C5.5053271 19.36325423 7.65895014 19.3991199 9.8125 19.4375 C7.88858351 14.12338506 7.88858351 14.12338506 3.8125 10.4375 C-2.63536503 9.65808774 -7.5105688 10.17326456 -13.1875 13.4375 C-14.1775 13.1075 -15.1675 12.7775 -16.1875 12.4375 C-17.6352922 9.54191559 -18.1875 7.69561062 -18.1875 4.4375 C-12.07270393 0.81391715 -6.97786034 0.02827907 0 0 Z " fill="#6D6D6C" transform="translate(566.1875,695.5625)"/>
<path d="M0 0 C2.1271778 1.47608345 3.72864791 2.97754626 5.4296875 4.92578125 C6.21472656 5.77849609 6.21472656 5.77849609 7.015625 6.6484375 C10.85134062 11.63910617 11.16799329 16.63198425 10.91796875 22.796875 C9.98491177 28.77590415 7.20123446 32.32295304 2.8046875 36.30078125 C-1.85811997 39.4911232 -4.17660244 40.24434 -9.8828125 40.30078125 C-11.17832031 40.32914063 -12.47382813 40.3575 -13.80859375 40.38671875 C-19.2118803 39.72463379 -22.95878878 37.16222211 -26.3203125 32.92578125 C-31.36661156 26.1973825 -31.45450027 20.23714631 -30.5703125 11.92578125 C-28.78630754 6.57376636 -25.05087781 2.51642885 -20.140625 -0.21875 C-13.78150154 -2.33523638 -6.23460045 -2.60564608 0 0 Z " fill="#FBFCFC" transform="translate(422.5703125,691.07421875)"/>
<path d="M0 0 C5.02482371 2.98671765 8.82585221 6.38771289 10.71484375 12.0546875 C10.79952545 14.56836805 10.8308626 17.05338124 10.8125 19.56640625 C10.81108505 20.29463089 10.8096701 21.02285553 10.80821228 21.77314758 C10.80262034 24.09620289 10.79006937 26.41916138 10.77734375 28.7421875 C10.77232771 30.31835798 10.76776498 31.89452998 10.76367188 33.47070312 C10.75265355 37.33206848 10.73539449 41.19336158 10.71484375 45.0546875 C7.08484375 45.0546875 3.45484375 45.0546875 -0.28515625 45.0546875 C-0.28926514 44.20237549 -0.29337402 43.35006348 -0.29760742 42.47192383 C-0.32466045 39.29373402 -0.37382055 36.11685458 -0.43774414 32.93920898 C-0.46086603 31.56693319 -0.47530628 30.19448141 -0.48071289 28.82202148 C-0.4900429 26.84334279 -0.53372644 24.86492126 -0.578125 22.88671875 C-0.59383545 21.69796143 -0.6095459 20.5092041 -0.62573242 19.28442383 C-1.46628586 15.16754807 -3.06163241 13.66417811 -6.28515625 11.0546875 C-8.75684471 10.27690883 -8.75684471 10.27690883 -11.28515625 10.4296875 C-12.52265625 10.41035156 -12.52265625 10.41035156 -13.78515625 10.390625 C-17.43789328 11.36088327 -18.90101487 13.16012877 -21.28515625 16.0546875 C-22.05841794 19.42156648 -22.05841794 19.42156648 -21.9921875 23.10546875 C-22.00730881 23.76427536 -22.02243011 24.42308197 -22.03800964 25.10185242 C-22.08074191 27.1906495 -22.0897089 29.2779977 -22.09765625 31.3671875 C-22.12081239 32.78975167 -22.14618008 34.21228167 -22.17382812 35.63476562 C-22.23653241 39.10804554 -22.26898409 42.58084363 -22.28515625 46.0546875 C-26.24515625 46.0546875 -30.20515625 46.0546875 -34.28515625 46.0546875 C-34.28515625 30.8746875 -34.28515625 15.6946875 -34.28515625 0.0546875 C-30.65515625 0.0546875 -27.02515625 0.0546875 -23.28515625 0.0546875 C-22.95515625 1.7046875 -22.62515625 3.3546875 -22.28515625 5.0546875 C-21.56328125 4.4359375 -20.84140625 3.8171875 -20.09765625 3.1796875 C-14.20114963 -1.27545084 -7.05960001 -2.92038154 0 0 Z " fill="#6E6E6D" transform="translate(634.28515625,695.9453125)"/>
<path d="M0 0 C12.87 0 25.74 0 39 0 C39 8 39 8 37.94946289 10.01879883 C37.4621167 10.49341553 36.97477051 10.96803223 36.47265625 11.45703125 C35.93165283 12.00705811 35.39064941 12.55708496 34.83325195 13.1237793 C34.24890381 13.68105713 33.66455566 14.23833496 33.0625 14.8125 C31.86720184 16.02088119 30.67451263 17.23184836 29.484375 18.4453125 C28.89333984 19.03989258 28.30230469 19.63447266 27.69335938 20.24707031 C23.01675218 25.08819483 18.73137552 30.40293672 15 36 C22.92 36 30.84 36 39 36 C39 38.97 39 41.94 39 45 C26.13 45 13.26 45 0 45 C0 37.26636306 0.1363193 35.69031131 4.9375 30.6875 C5.94757242 29.56857224 6.95667123 28.4487649 7.96484375 27.328125 C8.4738623 26.77447266 8.98288086 26.22082031 9.50732422 25.65039062 C11.76646741 23.1525483 13.87770713 20.55278018 16 17.9375 C16.70125 17.08027344 17.4025 16.22304688 18.125 15.33984375 C19.79201653 13.25954604 21.40050953 11.13265395 23 9 C15.41 9 7.82 9 0 9 C0 6.03 0 3.06 0 0 Z " fill="#6A6A6A" transform="translate(680,696)"/>
<path d="M0 0 C2.64599609 1.06567383 2.64599609 1.06567383 4.64599609 3.06567383 C5.0801643 6.54638524 5.09967481 8.38902645 3.12312317 11.33699036 C2.4098436 12.04901108 1.69656403 12.7610318 0.96166992 13.49462891 C0.15695755 14.31179886 -0.64775482 15.12896881 -1.47685242 15.97090149 C-2.79856194 17.26498177 -2.79856194 17.26498177 -4.14697266 18.58520508 C-5.04515213 19.48438156 -5.9433316 20.38355804 -6.86872864 21.3099823 C-8.77120461 23.20777702 -10.67836924 25.09865227 -12.59643555 26.98046875 C-15.05037841 29.38903605 -17.48155434 31.81912737 -19.90613842 34.25720692 C-22.22600593 36.58537674 -24.56190272 38.89729788 -26.89697266 41.21020508 C-27.76799118 42.08304642 -28.6390097 42.95588776 -29.53642273 43.85517883 C-30.76713249 45.05729256 -30.76713249 45.05729256 -32.02270508 46.28369141 C-32.73996262 46.99173416 -33.45722015 47.69977692 -34.19621277 48.42927551 C-36.64578753 50.286953 -38.30605395 50.82040968 -41.35400391 51.06567383 C-43.34619141 49.87817383 -43.34619141 49.87817383 -45.22900391 48.06567383 C-45.91349609 47.41727539 -46.59798828 46.76887695 -47.30322266 46.10083008 C-48.31835938 45.09342773 -48.31835938 45.09342773 -49.35400391 44.06567383 C-49.97919922 43.46625977 -50.60439453 42.8668457 -51.24853516 42.24926758 C-52.9887877 40.55451183 -54.67953728 38.82528283 -56.35400391 37.06567383 C-56.87607422 36.5268457 -57.39814453 35.98801758 -57.93603516 35.43286133 C-61.33517123 31.70598486 -61.33517123 31.70598486 -61.41650391 28.94067383 C-60.00685607 26.45306 -58.62381871 24.81667382 -56.35400391 23.06567383 C-52.8503315 23.40749553 -51.25650734 24.85442878 -48.91650391 27.37817383 C-46.22175547 30.20069051 -43.47224437 32.70337045 -40.35400391 35.06567383 C-37.30297956 33.7084452 -35.26843265 32.2012839 -32.96582031 29.79345703 C-32.32480377 29.12969559 -31.68378723 28.46593414 -31.02334595 27.78205872 C-30.3409787 27.06740952 -29.65861145 26.35276031 -28.95556641 25.61645508 C-27.4927735 24.11377271 -26.02920807 22.61184203 -24.56494141 21.1105957 C-22.26374693 18.74121221 -19.96837354 16.36705336 -17.68603516 13.97949219 C-15.47910577 11.67593842 -13.25080303 9.39496553 -11.01806641 7.11645508 C-10.33974762 6.39573318 -9.66142883 5.67501129 -8.96255493 4.93244934 C-4.16340728 0.08152253 -4.16340728 0.08152253 0 0 Z " fill="#3C6673" transform="translate(575.35400390625,319.934326171875)"/>
<path d="M0 0 C4.29 0 8.58 0 13 0 C13 20.46 13 40.92 13 62 C8.71 62 4.42 62 0 62 C0 41.54 0 21.08 0 0 Z " fill="#38626C" transform="translate(253,679)"/>
<path d="M0 0 C5.04683117 4.23243306 9.80453378 8.6446436 14.46484375 13.296875 C15.48210289 14.30914154 15.48210289 14.30914154 16.51991272 15.34185791 C17.93881377 16.75573237 19.35639597 18.1709315 20.77270508 19.58740234 C22.95049407 21.76298088 25.13618845 23.93040981 27.32226562 26.09765625 C28.70361298 27.47607365 30.08448969 28.85496291 31.46484375 30.234375 C32.12097153 30.88331726 32.7770993 31.53225952 33.45310974 32.2008667 C34.05115921 32.8019928 34.64920868 33.4031189 35.26538086 34.02246094 C35.7949791 34.55063416 36.32457733 35.07880737 36.870224 35.62298584 C38 37 38 37 38 39 C33.67673967 39.0992011 29.35408976 39.17162265 25.0300293 39.21972656 C23.56051079 39.23978825 22.09107159 39.26704478 20.62182617 39.30175781 C18.50419513 39.35052141 16.38762313 39.37302161 14.26953125 39.390625 C12.36071167 39.4220459 12.36071167 39.4220459 10.41333008 39.45410156 C6.37632473 38.91702768 4.81909347 37.89043483 2 35 C-0.53318393 31.48988032 -0.22998294 28.05791849 -0.1953125 23.828125 C-0.1924826 23.1457074 -0.18965271 22.46328979 -0.18673706 21.76019287 C-0.17558098 19.58994693 -0.15048557 17.42012029 -0.125 15.25 C-0.11496426 13.77474556 -0.10583944 12.29948463 -0.09765625 10.82421875 C-0.07565687 7.21601058 -0.04115883 3.60804625 0 0 Z " fill="#406873" transform="translate(595,286)"/>
<path d="M0 0 C3.3 0 6.6 0 10 0 C10 2.31 10 4.62 10 7 C10.66 7 11.32 7 12 7 C12.2475 6.401875 12.495 5.80375 12.75 5.1875 C14.27404105 2.52042816 15.26745935 1.43817929 18 0 C20.72036936 -0.24493747 23.25824366 -0.13708782 26 0 C26 3.3 26 6.6 26 10 C24.5975 10.2475 23.195 10.495 21.75 10.75 C17.7367275 11.63342476 15.53579287 12.61894284 13 16 C11.63160637 18.73678725 11.78365182 21.04264424 11.68359375 24.1015625 C11.64169922 25.31328125 11.59980469 26.525 11.55664062 27.7734375 C11.51732422 29.04445313 11.47800781 30.31546875 11.4375 31.625 C11.39431641 32.90375 11.35113281 34.1825 11.30664062 35.5 C11.20030114 38.66655348 11.09827167 41.83318753 11 45 C7.37 45 3.74 45 0 45 C0 30.15 0 15.3 0 0 Z " fill="#6A6967" transform="translate(456,696)"/>
<path d="M0 0 C3.96 0 7.92 0 12 0 C12 14.85 12 29.7 12 45 C8.04 45 4.08 45 0 45 C0 30.15 0 15.3 0 0 Z " fill="#717070" transform="translate(658,696)"/>
<path d="M0 0 C2.84625 -0.0825 5.6925 -0.165 8.625 -0.25 C9.51010254 -0.28641602 10.39520508 -0.32283203 11.30712891 -0.36035156 C16.6946415 -0.4355318 19.75911288 0.3724104 24 4 C26.46165708 7.69248562 26.80846905 10.71511403 26 15 C24.03332671 18.52488367 21.89635569 20.70121477 18 22 C16.59175107 22.08021999 15.18002769 22.10765977 13.76953125 22.09765625 C13.04612549 22.09515869 12.32271973 22.09266113 11.57739258 22.09008789 C10.66497803 22.08098389 9.75256348 22.07187988 8.8125 22.0625 C5.904375 22.041875 2.99625 22.02125 0 22 C0 14.74 0 7.48 0 0 Z " fill="#F9FAF9" transform="translate(296,690)"/>
<path d="M0 0 C3.21909711 1.40248828 5.18680857 2.98199059 7 6 C8.17889023 11.05940391 7.55273167 14.85359357 5.3125 19.5 C1.73783227 23.36450565 -0.71250181 23.8338712 -5.875 24.5 C-10.24876636 24.40870696 -12.52287313 22.49256579 -15.65234375 19.60546875 C-18.57637503 16.12205758 -18.36732748 12.33446432 -18 8 C-13.6127555 -0.01806754 -8.70156135 -1.33125417 0 0 Z " fill="#FAFAFA" transform="translate(517,705)"/>
<path d="M0 0 C8.25 0 16.5 0 25 0 C25 3.63 25 7.26 25 11 C16.75 11 8.5 11 0 11 C0 7.37 0 3.74 0 0 Z " fill="#4E767F" transform="translate(346,710)"/>
<path d="M0 0 C7.06735014 0 7.35039837 0.45852864 12 5 C13.92572521 8.85145043 13.04883218 13.80043252 13 18 C8.71 18 4.42 18 0 18 C0 12.06 0 6.12 0 0 Z " fill="#416B75" transform="translate(644,379)"/>
<path d="M0 0 C0.69738281 0.01353516 1.39476562 0.02707031 2.11328125 0.04101562 C3.82585541 0.0762055 5.53802941 0.13000845 7.25 0.1875 C7.3984375 3.5390625 7.3984375 3.5390625 7.25 7.1875 C3.95573757 10.48176243 1.52523897 12.11665339 -3.125 12.375 C-8.59713376 12.0919586 -8.59713376 12.0919586 -10.75 10.1875 C-11.5 6.5625 -11.5 6.5625 -11.75 3.1875 C-8.17517469 -0.32283104 -4.73451742 -0.1745238 0 0 Z " fill="#F9F8F5" transform="translate(747.75,721.8125)"/>
<path d="M0 0 C1.0528418 0.01353516 1.0528418 0.01353516 2.12695312 0.02734375 C3.85561525 0.05086296 5.58410145 0.08673287 7.3125 0.125 C7.4609375 3.4765625 7.4609375 3.4765625 7.3125 7.125 C4.06137634 10.37612366 1.56988084 12.00637917 -3 12.4375 C-7.22923592 12.07909018 -8.69293798 11.02881772 -11.6875 8.125 C-11.375 5.25 -11.375 5.25 -10.6875 2.125 C-7.00662647 -0.32891569 -4.24394412 -0.10302759 0 0 Z " fill="#F8F8F8" transform="translate(567.6875,721.875)"/>
<path d="M0 0 C2.375 1.625 2.375 1.625 4 4 C4.5625 7 4.5625 7 4 10 C1.57904909 12.62846098 -0.04614692 13.81388233 -3.5625 14.5 C-6.9249123 13.8102744 -8.0486167 12.81866476 -10 10 C-10.5 6.4375 -10.5 6.4375 -10 3 C-7.15718952 -0.3895048 -4.25588004 -0.62064917 0 0 Z " fill="#6E6E6E" transform="translate(667,675)"/>
<path d="M0 0 C3.36179774 1.44077046 5.59156268 3.24750021 8 6 C8 6.66 8 7.32 8 8 C6.68 8 5.36 8 4 8 C2.09080647 5.38369776 1.02455574 3.07366722 0 0 Z " fill="#456C76" transform="translate(624,316)"/>
</svg>
